<?xml version="1.0" encoding="iso-8859-1"?>
<!-- Generator: Adobe Illustrator 19.0.0, SVG Export Plug-In . SVG Version: 6.00 Build 0)  -->
<svg version="1.1" id="Capa_1" xmlns="http://www.w3.org/2000/svg" xmlns:xlink="http://www.w3.org/1999/xlink" x="0px" y="0px"
	 viewBox="0 0 512 512" style="enable-background:new 0 0 512 512;" xml:space="preserve">
<path style="fill:#91CDFF;" d="M256,0C114.615,0,0,114.615,0,256c0,62.128,22.204,119.245,58.914,163.383
	c17.597,21.162,32.959,32.953,35.188,34.935C96.214,454.319,154.129,512,256,512c141.385,0,256-114.615,256-256
	C512,114.862,397.646,0,256,0z"/>
<path style="fill:#FFAF37;" d="M499.526,192.524v142.628c-12.147,37.401-32.67,71.019-59.357,98.654H71.83
	c-4.035-4.183-8.407-8.997-12.916-14.423c-20.397-24.526-36.316-53.067-46.44-84.252V192.524c0-30.648,24.832-55.479,55.479-55.479
	h376.093C474.694,137.045,499.526,161.877,499.526,192.524z"/>
<path style="fill:#FFC364;" d="M499.526,192.524v142.628c-4.646,14.328-10.535,28.098-17.52,41.183
	c-9.924,9.313-23.273,15.023-37.959,15.023H67.953c-14.697,0-28.056-5.721-37.98-15.045c-6.974-13.074-12.853-26.844-17.499-41.183
	V192.524c0-30.648,24.832-55.479,55.479-55.479h376.093C474.694,137.045,499.526,161.877,499.526,192.524z"/>
<path style="fill:#413255;" d="M370.129,131.036c0,1.769-0.137,3.516-0.411,5.204c-1.119,7.134-4.52,13.537-9.428,18.445
	c-6.061,6.073-14.439,9.839-23.638,9.839H175.348c-18.411,0-33.477-15.067-33.477-33.489c0-9.2,3.766-17.577,9.839-23.638
	c4.429-4.44,10.101-7.648,16.436-9.04c2.317-0.525,4.737-0.799,7.202-0.799h161.303C355.062,97.559,370.129,112.626,370.129,131.036
	z"/>
<path style="fill:#644682;" d="M336.652,97.559h-42.688V52.196c0-10.444-4.269-19.929-11.152-26.812S266.432,14.232,256,14.232
	c-20.876,0-37.963,17.086-37.963,37.963v45.363h-42.688c-2.465,0-4.885,0.274-7.202,0.799c-0.274,1.689-0.411,3.436-0.411,5.204
	c0,18.411,15.067,33.477,33.489,33.477h161.303c2.465,0,4.874-0.274,7.19-0.799c0.274-1.689,0.411-3.436,0.411-5.204
	C370.129,112.626,355.062,97.559,336.652,97.559z M256,37.62c10.398,0,18.833,8.435,18.833,18.833S266.398,75.286,256,75.286
	c-10.398,0-18.833-8.435-18.833-18.833S245.602,37.62,256,37.62z"/>
<path style="fill:#91CDFF;" d="M239.387,285.423c0,29.642-14.404,55.918-36.605,72.206c-14.826,10.9-33.123,17.327-52.927,17.327
	s-38.1-6.427-52.927-17.327c-22.2-16.288-36.605-42.563-36.605-72.206c0-49.446,40.086-89.532,89.532-89.532
	S239.387,235.977,239.387,285.423z"/>
<path style="fill:#DCE6EB;" d="M202.781,338.35v19.279c-11.346,8.332-24.712,14.062-39.23,16.276
	c-4.463,0.696-9.04,1.05-13.697,1.05c-19.803,0-38.1-6.427-52.927-17.327V338.35c0-16.859,8.002-31.925,20.374-41.638
	c2.089-1.632,2.5-4.68,0.776-6.701c-6.232-7.294-9.999-16.767-9.999-27.109c0-24.072,20.351-43.385,44.789-41.673
	c3.698,0.262,7.282,1.016,10.661,2.203c15.409,5.353,26.812,19.586,27.999,36.457c0.799,11.516-3.059,22.12-9.896,30.122
	c-1.724,2.009-1.313,5.056,0.776,6.689c1.689,1.324,3.31,2.751,4.828,4.269C196.824,310.568,202.781,323.798,202.781,338.35z"/>
<path style="fill:#F0F4F7;" d="M202.781,338.35v19.279c-11.346,8.332-24.712,14.062-39.23,16.276
	c-10.479-1.598-20.374-5.034-29.334-9.953c-6.073-3.344-9.896-9.679-9.896-16.607v-8.994c0-16.859,8.002-31.925,20.374-41.638
	c2.089-1.632,2.5-4.68,0.776-6.701c-6.232-7.294-9.999-16.767-9.999-27.109c0-18.274,11.722-33.797,28.056-39.47
	c15.409,5.353,26.812,19.586,27.999,36.457c0.799,11.516-3.059,22.12-9.896,30.122c-1.724,2.009-1.313,5.056,0.776,6.689
	c1.689,1.324,3.31,2.751,4.828,4.269C196.824,310.568,202.781,323.798,202.781,338.35z"/>
<g>
	<path style="fill:#E2F2FF;" d="M278.828,242.974h173.494c4.728,0,8.56-3.833,8.56-8.56s-3.833-8.561-8.56-8.561H278.828
		c-4.728,0-8.56,3.833-8.56,8.561S274.1,242.974,278.828,242.974z"/>
	<path style="fill:#E2F2FF;" d="M452.322,276.862H278.828c-4.728,0-8.56,3.833-8.56,8.56c0,4.728,3.833,8.561,8.56,8.561h173.494
		c4.728,0,8.56-3.833,8.56-8.561C460.882,280.695,457.049,276.862,452.322,276.862z"/>
	<path style="fill:#E2F2FF;" d="M452.322,327.872H278.828c-4.728,0-8.56,3.833-8.56,8.56s3.833,8.56,8.56,8.56h173.494
		c4.728,0,8.56-3.833,8.56-8.56S457.049,327.872,452.322,327.872z"/>
</g>
<g>
</g>
<g>
</g>
<g>
</g>
<g>
</g>
<g>
</g>
<g>
</g>
<g>
</g>
<g>
</g>
<g>
</g>
<g>
</g>
<g>
</g>
<g>
</g>
<g>
</g>
<g>
</g>
<g>
</g>
</svg>
