<?xml version="1.0" encoding="iso-8859-1"?>
<!-- Generator: Adobe Illustrator 19.0.0, SVG Export Plug-In . SVG Version: 6.00 Build 0)  -->
<svg version="1.1" id="Capa_1" xmlns="http://www.w3.org/2000/svg" xmlns:xlink="http://www.w3.org/1999/xlink" x="0px" y="0px"
	 viewBox="0 0 512 512" style="enable-background:new 0 0 512 512;" xml:space="preserve">
<path style="fill:#82D2AF;" d="M512,256c0,140.487-113.677,256-256,256C114.047,512,0,396.835,0,256C0,114.615,114.615,0,256,0
	C397.649,0,512,114.857,512,256z"/>
<path style="fill:#80391B;" d="M499.368,24.948v310.605C466.023,437.578,370.235,512,256,512
	c-86.506,0-162.656-42.774-208.938-108.051c-14.697-20.734-26.381-43.733-34.43-68.354V24.948c0-8.081,6.616-14.697,14.697-14.697
	h457.342C492.752,10.251,499.368,16.867,499.368,24.948z"/>
<path style="fill:#965028;" d="M499.368,24.948v310.605C466.023,437.578,370.235,512,256,512
	c-86.506,0-162.656-42.774-208.938-108.051V24.948c0-8.081,6.616-14.697,14.697-14.697h422.913
	C492.752,10.251,499.368,16.867,499.368,24.948z"/>
<g>
	<path style="fill:#3C190A;" d="M512,12.716v12.179c0,6.985-5.721,12.706-12.706,12.706H12.706C5.721,37.601,0,31.88,0,24.895
		V12.716C0,5.721,5.721,0,12.706,0h486.589C506.279,0,512,5.721,512,12.716z"/>
	<path style="fill:#3C190A;" d="M512,197.36v12.189c0,6.985-5.721,12.706-12.706,12.706H12.706C5.721,222.255,0,216.534,0,209.549
		V197.36c0-6.985,5.721-12.706,12.706-12.706h486.589C506.279,184.654,512,190.375,512,197.36z"/>
	<path style="fill:#3C190A;" d="M485.588,369.308c-24.168,48.905-63.507,89.098-112.065,114.225
		C338.408,501.707,298.479,512,256,512c-42.416,0-82.345-10.283-117.48-28.467c-47.367-24.505-86.032-63.36-110.358-110.727
		c-0.601-1.159-1.191-2.328-1.77-3.498H485.588z"/>
</g>
<g>
	<path style="fill:#501E0F;" d="M512,12.716v12.179c0,6.985-5.721,12.706-12.706,12.706H35.884c-6.985,0-12.706-5.721-12.706-12.706
		V12.716C23.178,5.721,28.899,0,35.884,0h463.411C506.279,0,512,5.721,512,12.716z"/>
	<path style="fill:#501E0F;" d="M512,197.36v12.189c0,6.985-5.721,12.706-12.706,12.706H35.884c-6.985,0-12.706-5.721-12.706-12.706
		V197.36c0-6.985,5.721-12.706,12.706-12.706h463.411C506.279,184.654,512,190.375,512,197.36z"/>
	<path style="fill:#501E0F;" d="M485.588,369.308c-7.87,15.919-17.341,30.911-28.214,44.765
		c-22.535,28.709-51.097,52.508-83.851,69.46C338.408,501.707,298.479,512,256,512c-42.416,0-82.345-10.283-117.48-28.467
		c-32.744-16.941-61.327-40.74-83.883-69.46c-10.093-12.832-18.964-26.644-26.475-41.267c2.139-2.191,4.825-3.498,7.722-3.498
		L485.588,369.308L485.588,369.308z"/>
</g>
<path style="fill:#CD2D23;" d="M104.686,66.047v114.657c0,2.17-1.78,3.951-3.951,3.951H83.879c-2.17,0-3.951-1.78-3.951-3.951
	V66.047c0-2.17,1.78-3.951,3.951-3.951h16.857C102.906,62.096,104.686,63.876,104.686,66.047z"/>
<path style="fill:#FF3C2D;" d="M104.686,66.047v114.657c0,2.17-1.78,3.951-3.951,3.951h-4.478c-2.17,0-3.951-1.78-3.951-3.951
	V66.047c0-2.17,1.78-3.951,3.951-3.951h4.478C102.906,62.096,104.686,63.876,104.686,66.047z"/>
<path style="fill:#CD2D23;" d="M228.477,66.047v114.657c0,2.17-1.78,3.951-3.951,3.951H207.67c-2.17,0-3.951-1.78-3.951-3.951
	V66.047c0-2.17,1.78-3.951,3.951-3.951h16.857C226.697,62.096,228.477,63.876,228.477,66.047z"/>
<path style="fill:#FF3C2D;" d="M228.477,66.047v114.657c0,2.17-1.78,3.951-3.951,3.951h-4.478c-2.17,0-3.951-1.78-3.951-3.951
	V66.047c0-2.17,1.78-3.951,3.951-3.951h4.478C226.697,62.096,228.477,63.876,228.477,66.047z"/>
<path style="fill:#6092E0;" d="M203.719,86.854v93.849c0,2.17-1.78,3.951-3.951,3.951h-16.857c-2.17,0-3.951-1.78-3.951-3.951
	V86.854c0-2.17,1.78-3.951,3.951-3.951h16.857C201.939,82.903,203.719,84.684,203.719,86.854z"/>
<path style="fill:#6DA0E8;" d="M203.719,86.854v93.849c0,2.17-1.78,3.951-3.951,3.951h-4.478c-2.17,0-3.951-1.78-3.951-3.951V86.854
	c0-2.17,1.78-3.951,3.951-3.951h4.478C201.939,82.903,203.719,84.684,203.719,86.854z"/>
<path style="fill:#6092E0;" d="M79.913,88.34l-14.508,92.721c-0.335,2.144-2.369,3.628-4.514,3.292l-16.654-2.605
	c-2.144-0.335-3.628-2.369-3.292-4.514l14.508-92.721c0.335-2.144,2.369-3.628,4.514-3.292l16.654,2.606
	C78.765,84.162,80.249,86.197,79.913,88.34z"/>
<path style="fill:#6DA0E8;" d="M79.913,88.34l-14.508,92.721c-0.335,2.144-2.369,3.628-4.514,3.292l-4.424-0.692
	c-2.144-0.335-3.628-2.369-3.292-4.514l14.508-92.721c0.335-2.144,2.369-3.628,4.514-3.292l4.424,0.692
	C78.765,84.162,80.249,86.197,79.913,88.34z"/>
<path style="fill:#CD2D23;" d="M401.844,66.047v114.657c0,2.17-1.78,3.951-3.951,3.951h-16.857c-2.17,0-3.951-1.78-3.951-3.951
	V66.047c0-2.17,1.78-3.951,3.951-3.951h16.857C400.063,62.096,401.844,63.876,401.844,66.047z"/>
<path style="fill:#FF3C2D;" d="M401.844,66.047v114.657c0,2.17-1.78,3.951-3.951,3.951h-4.478c-2.17,0-3.951-1.78-3.951-3.951
	V66.047c0-2.17,1.78-3.951,3.951-3.951h4.478C400.063,62.096,401.844,63.876,401.844,66.047z"/>
<path style="fill:#6092E0;" d="M377.086,86.854v93.849c0,2.17-1.78,3.951-3.951,3.951h-16.857c-2.17,0-3.951-1.78-3.951-3.951
	V86.854c0-2.17,1.78-3.951,3.951-3.951h16.857C375.305,82.903,377.086,84.684,377.086,86.854z"/>
<path style="fill:#6DA0E8;" d="M377.086,86.854v93.849c0,2.17-1.78,3.951-3.951,3.951h-4.478c-2.17,0-3.951-1.78-3.951-3.951V86.854
	c0-2.17,1.78-3.951,3.951-3.951h4.478C375.305,82.903,377.086,84.684,377.086,86.854z"/>
<path style="fill:#5AC3A5;" d="M129.444,43.395v137.308c0,2.17-1.78,3.951-3.951,3.951h-16.857c-2.17,0-3.951-1.78-3.951-3.951
	V43.395c0-2.17,1.78-3.951,3.951-3.951h16.857C127.664,39.445,129.444,41.225,129.444,43.395z"/>
<path style="fill:#82D2AF;" d="M129.444,43.395v137.308c0,2.17-1.78,3.951-3.951,3.951h-4.478c-2.17,0-3.951-1.78-3.951-3.951
	V43.395c0-2.17,1.78-3.951,3.951-3.951h4.478C127.664,39.445,129.444,41.225,129.444,43.395z"/>
<path style="fill:#F2C230;" d="M154.203,43.395v137.308c0,2.17-1.78,3.951-3.951,3.951h-16.857c-2.17,0-3.951-1.78-3.951-3.951
	V43.395c0-2.17,1.78-3.951,3.951-3.951h16.857C152.422,39.445,154.203,41.225,154.203,43.395z"/>
<path style="fill:#FFEB50;" d="M154.203,43.395v137.308c0,2.17-1.78,3.951-3.951,3.951h-4.478c-2.17,0-3.951-1.78-3.951-3.951
	V43.395c0-2.17,1.78-3.951,3.951-3.951h4.478C152.422,39.445,154.203,41.225,154.203,43.395z"/>
<path style="fill:#9650AA;" d="M178.961,43.395v137.308c0,2.17-1.78,3.951-3.951,3.951h-16.857c-2.17,0-3.951-1.78-3.951-3.951
	V43.395c0-2.17,1.78-3.951,3.951-3.951h16.857C177.18,39.445,178.961,41.225,178.961,43.395z"/>
<path style="fill:#AF69C8;" d="M178.961,43.395v137.308c0,2.17-1.78,3.951-3.951,3.951h-4.478c-2.17,0-3.951-1.78-3.951-3.951
	V43.395c0-2.17,1.78-3.951,3.951-3.951h4.478C177.18,39.445,178.961,41.225,178.961,43.395z"/>
<path style="fill:#6092E0;" d="M253.236,43.395v137.308c0,2.17-1.78,3.951-3.951,3.951h-16.857c-2.17,0-3.951-1.78-3.951-3.951
	V43.395c0-2.17,1.78-3.951,3.951-3.951h16.857C251.455,39.445,253.236,41.225,253.236,43.395z"/>
<path style="fill:#6DA0E8;" d="M253.236,43.395v137.308c0,2.17-1.78,3.951-3.951,3.951h-4.478c-2.17,0-3.951-1.78-3.951-3.951
	V43.395c0-2.17,1.78-3.951,3.951-3.951h4.478C251.455,39.445,253.236,41.225,253.236,43.395z"/>
<path style="fill:#AF69C8;" d="M277.994,66.047v114.657c0,2.17-1.78,3.951-3.951,3.951h-16.857c-2.17,0-3.951-1.78-3.951-3.951
	V66.047c0-2.17,1.78-3.951,3.951-3.951h16.857C276.213,62.096,277.994,63.876,277.994,66.047z"/>
<path style="fill:#C37DDC;" d="M277.994,66.047v114.657c0,2.17-1.78,3.951-3.951,3.951h-4.478c-2.17,0-3.951-1.78-3.951-3.951
	V66.047c0-2.17,1.78-3.951,3.951-3.951h4.478C276.213,62.096,277.994,63.876,277.994,66.047z"/>
<path style="fill:#F2C230;" d="M327.569,66.047v114.657c0,2.17-1.78,3.951-3.951,3.951h-16.857c-2.17,0-3.951-1.78-3.951-3.951
	V66.047c0-2.17,1.78-3.951,3.951-3.951h16.857C325.789,62.096,327.569,63.876,327.569,66.047z"/>
<path style="fill:#FFEB50;" d="M327.569,66.047v114.657c0,2.17-1.78,3.951-3.951,3.951h-4.478c-2.17,0-3.951-1.78-3.951-3.951
	V66.047c0-2.17,1.78-3.951,3.951-3.951h4.478C325.789,62.096,327.569,63.876,327.569,66.047z"/>
<path style="fill:#5AC3A5;" d="M302.811,86.854v93.849c0,2.17-1.78,3.951-3.951,3.951h-16.857c-2.17,0-3.951-1.78-3.951-3.951
	V86.854c0-2.17,1.78-3.951,3.951-3.951h16.857C301.03,82.903,302.811,84.684,302.811,86.854z"/>
<path style="fill:#82D2AF;" d="M302.811,86.854v93.849c0,2.17-1.78,3.951-3.951,3.951h-4.478c-2.17,0-3.951-1.78-3.951-3.951V86.854
	c0-2.17,1.78-3.951,3.951-3.951h4.478C301.03,82.903,302.811,84.684,302.811,86.854z"/>
<path style="fill:#AF69C8;" d="M352.327,43.395v137.308c0,2.17-1.78,3.951-3.951,3.951H331.52c-2.17,0-3.951-1.78-3.951-3.951
	V43.395c0-2.17,1.78-3.951,3.951-3.951h16.857C350.547,39.445,352.327,41.225,352.327,43.395z"/>
<path style="fill:#C37DDC;" d="M352.327,43.395v137.308c0,2.17-1.78,3.951-3.951,3.951h-4.478c-2.17,0-3.951-1.78-3.951-3.951
	V43.395c0-2.17,1.78-3.951,3.951-3.951h4.478C350.547,39.445,352.327,41.225,352.327,43.395z"/>
<path style="fill:#AF69C8;" d="M421.238,47.439l57.932,124.489c0.916,1.968,0.053,4.333-1.915,5.249l-15.283,7.112
	c-1.968,0.916-4.333,0.053-5.249-1.915L398.792,57.885c-0.916-1.968-0.053-4.333,1.915-5.249l15.283-7.112
	C417.957,44.608,420.322,45.471,421.238,47.439z"/>
<path style="fill:#C37DDC;" d="M421.238,47.439l57.932,124.489c0.916,1.968,0.053,4.333-1.915,5.249l-4.059,1.889
	c-1.968,0.916-4.333,0.053-5.249-1.915L410.015,52.662c-0.916-1.968-0.053-4.333,1.915-5.249l4.059-1.889
	C417.957,44.608,420.322,45.471,421.238,47.439z"/>
<path style="fill:#CD2D23;" d="M148.049,249.587V365.32c0,2.19-1.797,3.988-3.988,3.988h-17.015c-2.19,0-3.988-1.797-3.988-3.988
	V249.587c0-2.19,1.797-3.988,3.988-3.988h17.015C146.252,245.599,148.049,247.397,148.049,249.587z"/>
<path style="fill:#FF3C2D;" d="M148.049,249.587V365.32c0,2.19-1.797,3.988-3.988,3.988h-4.52c-2.19,0-3.988-1.797-3.988-3.988
	V249.587c0-2.19,1.797-3.988,3.988-3.988h4.52C146.252,245.599,148.049,247.397,148.049,249.587z"/>
<path style="fill:#9650AA;" d="M123.043,272.091l-14.644,93.591c-0.338,2.164-2.392,3.662-4.557,3.324l-16.81-2.631
	c-2.164-0.338-3.662-2.392-3.324-4.557l14.644-93.591c0.338-2.164,2.392-3.662,4.557-3.324l16.81,2.631
	C121.884,267.873,123.382,269.927,123.043,272.091z"/>
<path style="fill:#AF69C8;" d="M123.043,272.091l-14.644,93.591c-0.338,2.164-2.392,3.662-4.557,3.324l-4.465-0.698
	c-2.164-0.338-3.662-2.392-3.324-4.557l14.644-93.591c0.338-2.164,2.392-3.662,4.557-3.324l4.465,0.698
	C121.884,267.873,123.382,269.927,123.043,272.091z"/>
<path style="fill:#5AC3A5;" d="M173.039,226.724v138.597c0,2.19-1.797,3.988-3.988,3.988h-17.015c-2.19,0-3.988-1.797-3.988-3.988
	V226.724c0-2.19,1.797-3.988,3.988-3.988h17.015C171.243,222.735,173.039,224.533,173.039,226.724z"/>
<path style="fill:#82D2AF;" d="M173.039,226.724v138.597c0,2.19-1.797,3.988-3.988,3.988h-4.52c-2.19,0-3.988-1.797-3.988-3.988
	V226.724c0-2.19,1.797-3.988,3.988-3.988h4.52C171.243,222.735,173.039,224.533,173.039,226.724z"/>
<path style="fill:#F2C230;" d="M198.03,226.724v138.597c0,2.19-1.797,3.988-3.988,3.988h-17.015c-2.19,0-3.988-1.797-3.988-3.988
	V226.724c0-2.19,1.797-3.988,3.988-3.988h17.015C196.233,222.735,198.03,224.533,198.03,226.724z"/>
<path style="fill:#FFEB50;" d="M198.03,226.724v138.597c0,2.19-1.797,3.988-3.988,3.988h-4.52c-2.19,0-3.988-1.797-3.988-3.988
	V226.724c0-2.19,1.797-3.988,3.988-3.988h4.52C196.233,222.735,198.03,224.533,198.03,226.724z"/>
<path style="fill:#6092E0;" d="M221.056,230.806l58.476,125.657c0.924,1.986,0.053,4.373-1.933,5.298l-15.426,7.179
	c-1.986,0.924-4.374,0.053-5.298-1.933l-58.476-125.657c-0.924-1.986-0.053-4.373,1.933-5.298l15.426-7.179
	C217.745,227.948,220.132,228.819,221.056,230.806z"/>
<path style="fill:#6DA0E8;" d="M221.056,230.806l58.476,125.657c0.924,1.986,0.053,4.373-1.933,5.298l-4.097,1.907
	c-1.986,0.924-4.374,0.053-5.298-1.933l-58.476-125.657c-0.924-1.986-0.053-4.373,1.933-5.298l4.097-1.907
	C217.745,227.948,220.132,228.819,221.056,230.806z"/>
<path style="fill:#CD2D23;" d="M336.925,247.003h141.633c2.681,0,4.88,2.2,4.88,4.88v20.822c0,2.681-2.2,4.88-4.88,4.88H336.925
	c-2.681,0-4.88-2.2-4.88-4.88v-20.822C332.044,249.203,334.243,247.003,336.925,247.003z"/>
<path style="fill:#FF3C2D;" d="M336.925,247.003h141.633c2.681,0,4.88,2.2,4.88,4.88v5.531c0,2.681-2.2,4.88-4.88,4.88H336.925
	c-2.681,0-4.88-2.2-4.88-4.88v-5.531C332.044,249.203,334.243,247.003,336.925,247.003z"/>
<path style="fill:#6092E0;" d="M362.627,277.586h115.931c2.681,0,4.88,2.2,4.88,4.88v20.822c0,2.681-2.2,4.88-4.88,4.88H362.627
	c-2.681,0-4.88-2.2-4.88-4.88v-20.822C357.747,279.786,359.947,277.586,362.627,277.586z"/>
<path style="fill:#6DA0E8;" d="M362.627,277.586h115.931c2.681,0,4.88,2.2,4.88,4.88v5.531c0,2.681-2.2,4.88-4.88,4.88H362.627
	c-2.681,0-4.88-2.2-4.88-4.88v-5.531C357.747,279.786,359.947,277.586,362.627,277.586z"/>
<path style="fill:#F2C230;" d="M308.944,338.725h169.614c2.681,0,4.88,2.2,4.88,4.88v20.822c0,2.681-2.2,4.88-4.88,4.88H308.944
	c-2.681,0-4.88-2.2-4.88-4.88v-20.822C304.064,340.924,306.262,338.725,308.944,338.725z"/>
<path style="fill:#FFEB50;" d="M308.944,338.725h169.614c2.681,0,4.88,2.2,4.88,4.88v5.531c0,2.681-2.2,4.88-4.88,4.88H308.944
	c-2.681,0-4.88-2.2-4.88-4.88v-5.531C304.064,340.924,306.262,338.725,308.944,338.725z"/>
<path style="fill:#AF69C8;" d="M308.944,308.169h169.614c2.681,0,4.88,2.2,4.88,4.88v20.822c0,2.681-2.2,4.88-4.88,4.88H308.944
	c-2.681,0-4.88-2.2-4.88-4.88v-20.822C304.064,310.369,306.262,308.169,308.944,308.169z"/>
<path style="fill:#C37DDC;" d="M308.944,308.169h169.614c2.681,0,4.88,2.2,4.88,4.88v5.531c0,2.681-2.2,4.88-4.88,4.88H308.944
	c-2.681,0-4.88-2.2-4.88-4.88v-5.531C304.064,310.369,306.262,308.169,308.944,308.169z"/>
<path style="fill:#3C190A;" d="M457.374,414.073c-22.535,28.709-51.097,52.508-83.851,69.46C338.408,501.707,298.479,512,256,512
	c-42.416,0-82.345-10.283-117.48-28.467c-32.744-16.941-61.327-40.74-83.883-69.46H457.374z"/>
<path style="fill:#80391B;" d="M308.393,449.504c0,2.792-1.148,5.341-2.992,7.185c-1.844,1.844-4.393,2.992-7.196,2.992h-84.41
	c-5.605,0-10.188-4.583-10.188-10.177c0-2.802,1.148-5.352,2.992-7.196s4.393-2.992,7.196-2.992h84.41
	C303.81,439.316,308.393,443.899,308.393,449.504z"/>
<path style="fill:#965028;" d="M308.393,449.504c0,2.792-1.148,5.341-2.992,7.185c-1.844,1.844-4.393,2.992-7.196,2.992H237.7
	c-5.605,0-10.188-4.583-10.188-10.177c0-2.802,1.148-5.352,2.992-7.196c1.844-1.844,4.393-2.992,7.196-2.992h60.505
	C303.81,439.316,308.393,443.899,308.393,449.504z"/>
<g>
</g>
<g>
</g>
<g>
</g>
<g>
</g>
<g>
</g>
<g>
</g>
<g>
</g>
<g>
</g>
<g>
</g>
<g>
</g>
<g>
</g>
<g>
</g>
<g>
</g>
<g>
</g>
<g>
</g>
</svg>
