<svg viewBox="1 0 511.99998 511" xmlns="http://www.w3.org/2000/svg"><path d="m512 257.683594c0 48.058594-13.3125 93.019531-36.445312 131.390625-13.851563 22.972656-31.230469 43.585937-51.378907 61.082031-6.894531 5.980469-14.113281 11.605469-21.632812 16.835938h-.007813c-41.230468 28.6875-91.308594 45.503906-145.347656 45.503906-91.597656 0-171.902344-48.332032-216.8125-120.875-3.847656-6.199219-7.425781-12.585938-10.730469-19.128906-17.445312-34.496094-27.273437-73.507813-27.273437-114.808594 0-140.730469 114.085937-254.816406 254.816406-254.816406 107.632812 0 199.679688 66.742187 237.027344 161.085937 3.515625 8.902344 6.550781 18.042969 9.058594 27.394531 5.691406 21.15625 8.726562 43.390625 8.726562 66.335938zm0 0" fill="#d6d6d6"/><path d="m110.289062 314.449219-69.914062 77.171875c-3.847656-6.199219-7.425781-12.585938-10.730469-19.128906l65.21875-72.011719zm0 0" fill="#fcda42"/><path d="m503.273438 191.347656-57.191407 108.28125-93.886719-65.203125 11.867188-17.085937 74.601562 51.804687 55.550782-105.191406c3.515625 8.902344 6.550781 18.042969 9.058594 27.394531zm0 0" fill="#fcda42"/><path d="m475.554688 389.074219c-13.851563 22.972656-31.230469 43.585937-51.378907 61.082031-6.894531 5.980469-14.113281 11.605469-21.632812 16.835938h-.007813c-3.984375-2.871094-7.644531-6.355469-10.847656-10.429688l-71.453125-91.003906-33.074219-42.144532 46.96875-46.96875 39.542969 31.035157 93.59375 73.5c3.121094 2.445312 5.886719 5.167969 8.289063 8.09375zm0 0" fill="#ff4f9b"/><path d="m424.175781 450.15625c-6.894531 5.980469-14.113281 11.605469-21.632812 16.835938-3.992188-2.871094-7.652344-6.355469-10.855469-10.441407l-71.441406-90.992187h-.011719l-33.074219-42.144532v-.011718l11.867188-11.867188h.011718l35.089844-35.089844 39.542969 31.035157c-2.296875 3.878906-6.175781 9.121093-10.617187 14.675781-14.96875 18.742188-14.136719 45.585938 1.789062 63.527344l45.949219 51.761718c4.230469 4.773438 8.757812 9.027344 13.382812 12.710938zm0 0" fill="#e8388c"/><path d="m378.332031 189.664062c0 104.472657-84.695312 189.167969-189.167969 189.167969-104.472656 0-189.164062-84.695312-189.164062-189.167969 0-104.472656 84.691406-189.164062 189.164062-189.164062 104.472657 0 189.167969 84.691406 189.167969 189.164062zm0 0" fill="#583377"/><path d="m291.351562 291.859375c-5.367187 5.375-11.046874 10.234375-16.992187 14.570313-56.519531 41.363281-136.3125 36.503906-187.390625-14.570313-1.265625-1.269531-2.515625-2.558594-3.710938-3.871094-6.242187-6.695312-11.722656-13.84375-16.421874-21.332031-31.335938-49.683594-29.488282-114.289062 5.554687-162.195312 4.347656-5.9375 9.203125-11.617188 14.570313-16.996094 56.441406-56.433594 147.96875-56.433594 204.402343 0 16.253907 16.257812 27.832031 35.425781 34.714844 55.820312 3.027344 8.957032 5.148437 18.140625 6.367187 27.425782 5.65625 43.027343-8.039062 88.105468-41.09375 121.148437zm0 0" fill="#fff"/><path d="m259.800781 119.035156c51.082031 51.078125 55.933594 130.863282 14.558594 187.394532-56.523437 41.367187-136.316406 36.503906-187.386719-14.566407-51.070312-51.070312-55.933594-130.863281-14.578125-187.398437 56.535157-41.375 136.328125-36.511719 187.40625 14.570312zm0 0" fill="#ededed"/><path d="m332.445312 170.710938-50.578124 36.289062-76.933594-76.921875-81.832032 105.722656-39.84375 52.1875c-6.242187-6.695312-11.722656-13.84375-16.421874-21.332031l35.652343-46.707031 99.960938-129.132813 82.195312 82.195313 41.433594-29.726563c3.027344 8.957032 5.148437 18.140625 6.367187 27.425782zm0 0" fill="#fcda42"/><path d="m332.445312 170.710938-32.835937 23.558593c-1.695313-8.996093-4.253906-17.867187-7.683594-26.480469l34.152344-24.503906c3.027344 8.957032 5.148437 18.140625 6.367187 27.425782zm0 0" fill="#fce47e"/><g fill="#ff4f9b"><path d="m137.390625 227.835938c0 13.570312-11 24.570312-24.570313 24.570312-13.566406 0-24.570312-11-24.570312-24.570312 0-13.570313 11.003906-24.570313 24.570312-24.570313 13.570313 0 24.570313 11 24.570313 24.570313zm0 0"/><path d="m228.261719 110.445312c0 13.570313-11 24.570313-24.570313 24.570313-13.570312 0-24.570312-11-24.570312-24.570313 0-13.570312 11-24.570312 24.570312-24.570312 13.570313 0 24.570313 11 24.570313 24.570312zm0 0"/><path d="m307.824219 190.003906c0 13.570313-11.003907 24.570313-24.570313 24.570313-13.570312 0-24.570312-11-24.570312-24.570313 0-13.566406 11-24.570312 24.570312-24.570312 13.566406 0 24.570313 11.003906 24.570313 24.570312zm0 0"/></g><path d="m307.828125 190.003906c0 6.386719-2.445313 12.203125-6.441406 16.570313-1.359375-13.53125-4.636719-26.90625-9.828125-39.6875 9.488281 3.398437 16.269531 12.46875 16.269531 23.117187zm0 0" fill="#ff8ac1"/><path d="m464.285156 284.386719c0 12.101562-9.8125 21.910156-21.910156 21.910156-12.101562 0-21.914062-9.808594-21.914062-21.910156 0-12.101563 9.8125-21.910157 21.914062-21.910157 12.097656 0 21.910156 9.808594 21.910156 21.910157zm0 0" fill="#ff4f9b"/></svg>